<?xml version="1.0" encoding="UTF-8"?>
<!DOCTYPE svg PUBLIC "-//W3C//DTD SVG 1.1//EN" "http://www.w3.org/Graphics/SVG/1.1/DTD/svg11.dtd">
<!-- Creator: CorelDRAW 2018 (64 Bit Versión de evaluación) -->
<svg xmlns="http://www.w3.org/2000/svg" xml:space="preserve" width="150px" height="150px" version="1.1" style="shape-rendering:geometricPrecision; text-rendering:geometricPrecision; image-rendering:optimizeQuality; fill-rule:evenodd; clip-rule:evenodd"
viewBox="0 0 1923 1923"
 xmlns:xlink="http://www.w3.org/1999/xlink">
 <defs>
  <style type="text/css">
   <![CDATA[
    .fil3 {fill:#FEFEFE}
    .fil2 {fill:#009846}
    .fil0 {fill:black}
    .fil1 {fill:url(#id0)}
   ]]>
  </style>
  <linearGradient id="id0" gradientUnits="userSpaceOnUse" x1="128" y1="961" x2="1795" y2="961">
   <stop offset="0" style="stop-opacity:1; stop-color:#00CC66"/>
   <stop offset="1" style="stop-opacity:1; stop-color:white"/>
  </linearGradient>
 </defs>
 <g id="Capa_x0020_1">
  <metadata id="CorelCorpID_0Corel-Layer"/>
  <path class="fil0" d="M1923 1923l0 -1923 -1923 0 0 1923 1923 0zm-128 -1795l0 1666 -1666 0 0 -1666 1666 0z"/>
  <path class="fil1" d="M1795 1795l0 -1666 -1666 0 0 1666 1666 0zm-128 -1538l0 1410 -1410 0 0 -1410 1410 0z"/>
  <polygon class="fil0" points="1666,1666 1666,256 256,256 256,1666 "/>
  <g id="_986197056">
   <path class="fil2" d="M476 888c-44,-48 -28,-134 19,-179 21,-21 49,-37 91,-39 45,-2 95,-1 100,-30 3,-20 -3,-28 -40,-35 -37,-7 -100,-11 -139,3 -39,14 -69,40 -89,68 -38,55 -61,181 -12,246 30,40 82,49 135,52 53,3 110,-3 146,-48 48,-63 -1,-164 -93,-123 -9,4 -9,14 -6,22 4,10 28,4 49,8 20,4 36,20 26,55 -16,59 -158,33 -188,0z"/>
   <path class="fil2" d="M737 814c10,19 21,42 23,67 2,27 -7,60 -5,79 2,19 18,23 30,18 38,-18 5,-87 8,-119 1,-11 6,-20 10,-25 8,-10 25,-11 41,-7 18,5 36,17 49,16 18,-2 20,-37 -2,-53 -13,-10 -47,-8 -64,-3 -8,2 -26,10 -32,11 -10,1 -17,-6 -23,-9 -10,-5 -21,-15 -30,-14 -5,1 -13,1 -14,10 -1,8 6,21 10,30z"/>
   <path class="fil2" d="M1030 806c-74,-21 -112,41 -104,107 4,25 8,38 25,56 30,33 84,42 124,10 15,-12 14,-25 8,-29 -8,-6 -16,-6 -24,0 -23,14 -52,31 -81,-5 -8,-10 -13,-26 -3,-37 15,-16 54,4 79,-21 28,-27 22,-68 -25,-81zm-65 64c-8,-15 -1,-31 11,-41 13,-11 34,-13 50,-8 25,8 35,38 14,56 -19,16 -62,16 -75,-8z"/>
   <path class="fil2" d="M1216 807c-74,-21 -112,41 -104,107 4,25 8,38 25,56 30,33 84,42 125,10 15,-11 14,-25 8,-29 -8,-6 -16,-6 -24,0 -23,14 -52,31 -81,-5 -8,-10 -13,-26 -3,-37 15,-17 54,4 79,-21 28,-28 22,-68 -25,-81zm10 72c-19,16 -62,16 -75,-8 -8,-15 -1,-31 11,-41 13,-11 34,-13 50,-8 25,8 35,38 14,56z"/>
   <path class="fil2" d="M1311 828c10,22 14,47 9,95 -3,24 -7,52 2,55 41,12 39,-33 39,-68 0,-12 4,-26 15,-34 16,-12 40,-13 58,4 21,21 4,57 8,85 2,10 27,8 35,7 32,-5 27,-109 23,-134 -4,-23 -7,-30 -18,-47 -9,-13 -36,-29 -62,-24 -13,2 -16,14 -24,22 -10,11 -13,13 -29,14 -23,1 -32,-28 -52,-34 -11,-3 -20,3 -19,16 2,22 11,30 16,43z"/>
   <path class="fil2" d="M734 1425c6,-16 12,-32 7,-58 -5,-23 -43,-25 -44,-4 -2,30 -8,47 -22,58 -30,25 -85,19 -119,3 -137,-68 -55,-302 114,-253 18,5 39,20 40,37 4,28 -14,40 -17,51 -3,11 7,18 13,19 7,1 14,5 29,-8 13,-11 19,-42 18,-60 -1,-30 -24,-51 -70,-69 -46,-19 -123,-26 -174,25 -51,50 -79,154 -41,236 38,82 232,111 265,23z"/>
   <path class="fil2" d="M787 1394c0,23 9,44 24,60 16,17 39,27 64,27 49,0 88,-39 88,-87 0,-48 -39,-87 -88,-87 -49,0 -88,39 -88,87zm87 48c-13,0 -25,-5 -34,-14 -9,-9 -15,-22 -15,-35 0,-27 22,-49 49,-49 27,0 49,22 49,49 0,27 -22,49 -49,49z"/>
   <path class="fil2" d="M1026 1328c4,40 -4,95 -18,129 -4,9 -15,37 -30,60 -20,30 -30,57 -9,61 31,6 41,-54 50,-78 12,-31 25,-83 49,-117 18,-24 28,-30 58,-34 54,-6 70,-69 44,-110 -12,-19 -33,-29 -60,-33 -32,-5 -88,-6 -124,8 -11,4 -11,12 -7,20 4,7 10,14 16,19 22,20 29,48 32,73zm86 -8c-19,3 -52,1 -56,-22 -1,-5 -2,-13 -6,-17 -2,-1 -3,-3 -4,-4 -6,-7 -10,-15 -8,-24 2,-7 7,-13 14,-16 16,-6 38,-6 54,-4 14,2 26,8 34,20 17,26 4,63 -28,67z"/>
   <path class="fil2" d="M1238 1200c22,37 29,103 12,140 -17,37 -44,66 -62,106 -6,13 -10,37 17,28 52,-18 182,-294 216,-356 16,-30 -22,-39 -32,-23l-25 43 -23 36c-12,18 -28,21 -49,14 -35,-13 -92,-107 -121,-82 -14,12 -13,27 -3,38 17,17 48,21 69,58z"/>
   <path class="fil2" d="M901 377c-31,1 -65,3 -82,22 -12,13 -10,45 9,48 14,2 28,-9 40,-3 75,38 -44,184 9,200 127,36 39,-143 46,-186 5,-34 42,-3 61,-14 19,-11 6,-50 -11,-57 -17,-7 -42,-10 -73,-9z"/>
   <path class="fil2" d="M1034 493c1,23 -13,96 -18,120 -5,24 25,25 30,4 5,-21 18,-76 53,-70 11,2 30,14 26,34 -3,16 -23,67 -6,68 17,1 48,-60 42,-102 -7,-56 -62,-18 -83,-61 -5,-10 -10,-28 -11,-46 -1,-19 11,-52 -7,-61 -18,-9 -34,5 -35,24 0,7 1,12 2,29 2,17 6,37 7,60z"/>
   <path class="fil2" d="M1296 458c-74,-21 -112,41 -104,107 4,25 8,38 25,56 30,33 84,41 124,10 15,-12 14,-25 8,-29 -8,-6 -16,-6 -24,0 -23,14 -52,31 -81,-5 -8,-10 -13,-26 -3,-37 15,-16 54,4 79,-21 28,-27 22,-68 -25,-81zm-65 64c-8,-15 -1,-31 11,-41 13,-11 34,-13 50,-8 25,8 35,39 14,56 -19,16 -62,16 -75,-8z"/>
   <path class="fil3" d="M901 377c31,-1 56,2 73,9 17,7 30,47 11,57 -20,11 -56,-19 -61,14 -6,43 82,222 -46,186 -53,-15 66,-161 -9,-200 -13,-6 -27,5 -40,3 -19,-3 -21,-35 -9,-48 17,-19 51,-21 82,-22zm93 83c7,-4 12,-10 15,-17 2,17 5,33 6,50 0,7 -1,16 -2,23 -1,12 -3,23 -5,35 -3,19 -7,39 -11,58 -3,15 1,30 15,38 10,6 22,6 32,1 11,-5 18,-15 21,-27 3,-12 13,-58 31,-55 5,1 11,6 10,12 -4,23 -26,68 -2,86 4,3 9,5 14,5 32,1 52,-52 58,-76l1 -2c4,16 12,29 26,44 39,43 105,48 151,12 9,-7 17,-17 19,-29 2,-12 -2,-24 -12,-31 -15,-10 -31,-10 -46,-1 -21,14 -37,22 -56,-1 -2,-2 -6,-8 -4,-11 4,-2 22,-1 26,-1 20,0 38,-5 53,-19 15,-15 25,-36 22,-58 -4,-30 -28,-48 -56,-56 -31,-9 -64,-7 -90,15 -21,17 -33,41 -37,67 -4,-9 -11,-16 -20,-21 -12,-7 -25,-7 -38,-10 -3,-1 -5,-1 -8,-2 -6,-2 -10,-5 -13,-11 -5,-11 -8,-27 -9,-39 0,-6 1,-15 2,-21 2,-16 2,-33 -8,-46 -3,-4 -7,-8 -12,-10 -29,-15 -57,4 -62,33 -6,-12 -15,-22 -25,-27 -23,-10 -54,-11 -79,-11 -1,0 -1,0 -2,0 -32,1 -73,3 -96,28 -21,24 -15,75 21,80 8,1 16,0 24,-2 2,-1 9,-3 11,-2 5,3 9,6 11,11 9,17 -1,51 -6,69 -6,18 -13,37 -17,55 -4,17 -7,38 5,53 5,6 12,11 20,13 26,7 58,11 78,-11 25,-27 16,-78 9,-110 -4,-17 -8,-34 -12,-51 -1,-7 -5,-22 -4,-29 4,0 10,2 13,2 11,2 23,4 34,-1 3,-1 2,-1 5,-2zm31 -57c1,-19 17,-34 35,-24 18,9 6,42 7,61 1,19 6,36 11,46 21,44 76,5 83,61 6,42 -25,102 -42,102 -17,-1 3,-53 6,-68 4,-20 -15,-33 -26,-34 -36,-6 -49,49 -53,70 -5,21 -35,20 -30,-4 5,-24 19,-97 18,-120 -1,-23 -5,-43 -7,-60 -2,-17 -3,-22 -2,-29zm167 161c-8,-66 30,-128 104,-107 48,13 53,54 25,81 -25,25 -64,5 -79,21 -10,11 -5,27 3,37 30,35 58,19 81,5 8,-5 16,-5 24,0 6,4 7,18 -8,29 -40,31 -95,23 -124,-10 -17,-18 -22,-31 -25,-56z"/>
   <path class="fil3" d="M1241 482c-12,10 -19,26 -11,41 13,24 56,23 75,8 21,-18 11,-49 -14,-56 -16,-5 -37,-3 -50,8zm11 14c9,-7 24,-8 34,-5 11,3 18,17 8,26 -13,11 -42,9 -48,-2 -2,-5 -2,-12 7,-19z"/>
   <path class="fil3" d="M1478 318c-42,0 -76,34 -76,76 0,42 34,76 76,76 42,0 76,-34 76,-76 0,-42 -34,-76 -76,-76zm0 19c32,0 57,26 57,57 0,32 -26,57 -57,57 -32,0 -57,-26 -57,-57 0,-32 26,-57 57,-57z"/>
   <path class="fil3" d="M1480 351l-34 0 0 81 16 0 0 -34 3 0c4,0 7,0 8,1 2,1 3,2 5,3 2,2 5,6 9,12l12 18 20 0 -10 -16c-4,-6 -7,-11 -9,-13 -2,-2 -5,-5 -9,-7 7,-1 13,-4 16,-8 4,-4 5,-9 5,-15 0,-5 -1,-9 -4,-13 -2,-4 -6,-6 -10,-8 -4,-2 -10,-2 -19,-2zm-18 14l13 0c7,0 11,0 12,0 3,0 5,2 6,3 2,2 2,4 2,7 0,2 -1,4 -2,6 -1,2 -3,3 -5,3 -2,1 -7,1 -15,1l-12 0 0 -21z"/>
   <path class="fil3" d="M705 644c7,-40 -21,-51 -55,-58 -43,-8 -108,-11 -149,4 -40,14 -75,41 -98,75 -25,36 -39,89 -42,132 -4,46 2,99 31,137 35,47 95,57 150,60 60,3 122,-5 162,-56 32,-41 32,-104 -7,-140 -31,-29 -72,-29 -109,-12 -19,9 -23,30 -15,48 11,24 43,15 64,19 16,3 14,18 11,30 -7,25 -62,22 -81,19 -19,-3 -61,-13 -74,-27 -38,-41 -19,-116 18,-152 22,-22 47,-32 78,-33 5,0 9,0 14,-1 30,-1 80,-1 98,-29 3,-5 5,-10 6,-16zm-59 -39c37,7 43,16 40,35 -5,29 -55,28 -100,30 -42,2 -70,18 -91,39 -46,45 -62,131 -19,179 30,33 172,60 188,0 10,-34 -7,-51 -26,-55 -21,-4 -45,2 -49,-8 -4,-8 -3,-18 6,-22 92,-41 141,60 93,123 -35,46 -92,51 -146,48 -53,-3 -105,-12 -135,-52 -49,-66 -26,-192 12,-246 20,-28 50,-55 89,-68 39,-14 102,-10 139,-3z"/>
   <path class="fil3" d="M780 771c-13,-8 -25,-18 -42,-16 -16,2 -29,10 -31,27 -2,14 6,29 12,41 10,19 19,39 21,60 1,8 0,16 -1,24 -2,17 -6,39 -4,56 2,19 15,35 35,37 8,1 16,0 23,-4 35,-17 31,-57 26,-89 -2,-9 -4,-19 -5,-28 -1,-6 -2,-13 -2,-19 0,-5 2,-10 5,-14 4,-4 16,-2 21,-1 18,5 37,19 57,16 5,-1 10,-2 14,-5 1,-1 2,-1 3,-2 -6,20 -7,41 -4,61l0 0 0 0c4,29 10,45 30,67 39,43 105,48 151,12 9,-7 17,-17 19,-29 0,-1 0,-2 1,-3 4,7 9,14 16,22 39,43 105,48 151,12 9,-7 17,-17 19,-29 2,-12 -2,-24 -12,-31 -15,-10 -31,-10 -46,-1 -22,14 -37,22 -56,-1 -2,-2 -6,-8 -4,-11 4,-2 22,-1 26,-1 20,-1 38,-5 53,-19 15,-15 25,-36 22,-58 -4,-30 -28,-48 -56,-56 -31,-9 -64,-6 -90,15 -33,27 -43,73 -38,114l0 0 0 0c1,7 2,13 4,19 -1,0 -1,-1 -2,-1 -15,-10 -31,-10 -46,-1 -21,14 -37,22 -56,-1 -2,-2 -6,-8 -4,-11 4,-2 22,-1 26,-1 20,0 38,-5 53,-19 15,-15 25,-36 22,-58 -4,-30 -28,-48 -56,-56 -31,-9 -64,-7 -90,15 -8,6 -14,13 -20,21 0,-3 0,-5 0,-8 -2,-17 -10,-32 -24,-42 -19,-14 -58,-12 -81,-6 -6,2 -12,4 -17,6 -3,1 -8,3 -11,4 -2,0 -10,-6 -12,-7zm146 142c-8,-66 30,-128 104,-107 48,13 53,54 25,81 -25,25 -64,5 -79,21 -10,11 -5,27 3,37 30,35 58,19 81,5 8,-5 16,-5 24,0 6,4 6,18 -8,29 -41,31 -95,23 -124,-10 -17,-18 -22,-31 -25,-56zm187 1c-8,-66 30,-128 104,-107 48,13 53,54 25,81 -25,25 -64,5 -79,21 -10,11 -5,27 3,37 30,35 58,19 81,5 8,-5 16,-5 24,0 6,4 7,18 -8,29 -41,32 -95,23 -125,-10 -17,-18 -22,-31 -25,-56zm-372 -141c9,-1 21,9 30,14 5,3 13,10 23,9 7,0 25,-9 32,-11 17,-5 51,-6 64,3 22,16 20,51 2,53 -13,2 -31,-11 -49,-16 -16,-5 -32,-3 -41,7 -4,5 -9,14 -10,25 -3,32 30,101 -8,119 -11,5 -27,1 -30,-18 -2,-19 7,-52 5,-79 -2,-25 -13,-48 -23,-67 -5,-9 -11,-22 -10,-30 1,-9 9,-10 14,-10z"/>
   <path class="fil3" d="M975 830c-12,10 -19,26 -11,41 13,24 56,23 75,8 21,-18 11,-49 -14,-56 -16,-5 -37,-3 -50,8zm11 14c9,-7 24,-8 34,-5 11,3 18,17 7,26 -13,11 -42,8 -48,-2 -2,-5 -2,-12 7,-19z"/>
   <path class="fil3" d="M1212 823c-16,-5 -37,-3 -50,8 -12,10 -19,26 -11,41 13,24 56,23 75,8 21,-18 11,-49 -14,-56zm-39 22c9,-7 24,-8 34,-5 11,3 18,17 8,26 -13,11 -42,9 -48,-2 -2,-5 -2,-12 7,-19z"/>
   <path class="fil3" d="M1320 751c-25,-8 -46,10 -44,36 1,17 5,27 14,41 2,3 3,6 4,8 12,28 11,55 8,85 0,3 -1,7 -1,10 -2,20 -9,58 17,66 15,4 31,4 44,-6 18,-15 20,-43 20,-64 0,-5 0,-11 0,-16 0,-6 2,-14 7,-18 10,-7 24,-6 32,2 8,8 5,27 4,37 -1,13 -3,25 -1,38 4,25 37,26 57,23 36,-6 41,-59 42,-88 1,-22 0,-48 -3,-69 -4,-24 -8,-34 -22,-54 -17,-24 -53,-37 -81,-32 -9,1 -16,5 -22,11 -5,5 -8,11 -13,17 -7,8 -6,7 -16,8 -5,0 -12,-8 -15,-11 -7,-7 -14,-14 -23,-19 -5,-2 -2,-1 -7,-3zm-9 77c-6,-13 -15,-21 -16,-43 -1,-13 8,-19 19,-16 20,6 28,35 52,34 16,-1 19,-3 29,-14 7,-8 11,-20 24,-22 26,-5 53,11 62,24 12,17 15,23 18,47 4,26 9,129 -23,134 -8,1 -33,3 -35,-7 -5,-28 13,-63 -8,-85 -17,-17 -42,-16 -58,-4 -11,8 -15,22 -15,34 0,35 2,80 -39,68 -10,-3 -5,-31 -2,-55 5,-48 1,-73 -9,-95z"/>
   <path class="fil3" d="M773 1210c-1,-47 -44,-71 -82,-87 -64,-26 -144,-21 -195,29 -31,30 -51,74 -60,116 -10,47 -6,98 15,142 22,47 79,73 127,83 51,11 123,8 159,-36 6,-7 11,-16 14,-25 9,-25 13,-42 8,-69 -9,-45 -80,-45 -83,-1 -1,14 -3,35 -15,44 -24,20 -72,13 -98,0 -27,-13 -45,-35 -54,-63 -12,-41 0,-87 27,-119 32,-38 79,-48 126,-35 5,1 9,4 13,6 3,2 12,9 12,13l0 1 0 1c3,21 -12,27 -16,44 -5,20 9,39 29,43 6,1 11,2 17,1 10,-1 20,-7 27,-13 18,-16 26,-52 25,-75zm-32 157c5,26 -1,42 -7,58 -33,88 -227,59 -265,-23 -38,-82 -11,-186 41,-236 51,-50 128,-43 174,-25 46,19 69,40 70,69 1,18 -6,49 -18,60 -14,12 -22,9 -29,8 -7,-1 -16,-8 -13,-19 3,-11 20,-23 17,-51 -1,-17 -22,-32 -40,-37 -169,-49 -251,185 -114,253 34,17 88,23 119,-3 13,-11 20,-28 22,-58 1,-21 39,-19 44,4z"/>
   <path class="fil3" d="M875 1287c-59,0 -107,47 -107,106 0,28 11,54 30,73 20,21 48,33 77,33 59,0 107,-47 107,-106 0,-59 -49,-106 -107,-106zm-88 106c0,-48 39,-87 88,-87 49,0 88,39 88,87 0,48 -39,87 -88,87 -25,0 -48,-10 -64,-27 -15,-16 -24,-37 -24,-60z"/>
   <path class="fil3" d="M874 1344c-27,0 -49,22 -49,49 0,13 5,26 15,35 9,9 21,14 34,14 27,0 49,-22 49,-49 0,-27 -22,-49 -49,-49zm-31 49c0,-17 14,-31 31,-31 17,0 31,14 31,31 0,17 -14,31 -31,31 -9,0 -16,-3 -22,-9 -6,-6 -9,-13 -9,-22z"/>
   <path class="fil3" d="M985 1216c36,-14 92,-13 124,-8 27,4 48,14 60,33 26,41 10,104 -44,110 -30,3 -40,9 -58,34 -25,33 -37,86 -49,117 -9,24 -19,84 -50,78 -21,-4 -10,-31 9,-61 15,-23 26,-52 30,-60 14,-34 22,-89 18,-129 -3,-26 -10,-53 -32,-73 -6,-5 -13,-12 -16,-19 -4,-8 -4,-16 7,-20zm-7 -18c-21,8 -27,28 -17,47 5,9 13,18 20,25 18,16 23,38 25,61 4,35 -3,87 -17,120 -8,20 -16,39 -28,57 -13,20 -34,54 -18,77 5,7 13,12 21,13 34,7 51,-27 60,-53 4,-12 7,-25 12,-37 14,-36 24,-81 47,-112 15,-20 20,-23 44,-26 68,-8 92,-87 58,-140 -17,-26 -45,-37 -74,-41 -40,-6 -97,-6 -134,9z"/>
   <path class="fil3" d="M1106 1233c-16,-2 -39,-2 -54,4 -7,3 -12,8 -14,16 -2,9 2,18 8,24 1,2 3,3 4,4 4,4 5,11 6,17 4,23 38,25 56,22 32,-4 45,-41 28,-67 -8,-12 -20,-18 -34,-20zm-48 21c13,-5 33,-5 45,-3 10,2 18,5 22,12 10,15 3,38 -16,40 -15,3 -35,-1 -36,-8 -3,-12 -3,-19 -11,-27 -5,-4 -11,-11 -3,-14z"/>
   <path class="fil3" d="M1155 1156c11,11 24,17 37,24 13,8 22,17 30,30 18,30 26,90 11,123 -4,8 -8,16 -13,24 -17,28 -36,52 -50,81 -7,15 -10,35 2,48 10,12 26,11 39,7 24,-9 51,-47 65,-68 25,-38 48,-78 69,-118 19,-36 38,-72 56,-108 12,-24 24,-49 37,-73 9,-16 10,-34 -4,-48 -6,-6 -15,-10 -23,-12 -11,-2 -23,1 -32,9 -3,2 -5,5 -7,8l-25 42 -23 35c-7,11 -14,10 -26,6 -12,-4 -35,-29 -44,-38 -19,-19 -51,-55 -81,-48 -6,1 -11,4 -16,8 -21,18 -24,47 -4,66zm50 318c-26,9 -23,-15 -17,-28 18,-39 46,-68 62,-106 16,-37 9,-104 -12,-140 -22,-37 -52,-41 -69,-58 -11,-10 -11,-26 3,-38 29,-25 86,69 121,82 21,7 37,5 49,-14l23 -36 25 -43c10,-16 48,-7 32,23 -34,63 -164,339 -216,356z"/>
  </g>
 </g>
</svg>
